<?xml version="1.0" encoding="utf-8"?>
<!-- Generator: Adobe Illustrator 25.4.1, SVG Export Plug-In . SVG Version: 6.00 Build 0)  -->
<svg version="1.1" id="Layer_1" xmlns="http://www.w3.org/2000/svg" xmlns:xlink="http://www.w3.org/1999/xlink" x="0px" y="0px"
	 viewBox="0 0 212.8 60.3" style="enable-background:new 0 0 212.8 60.3;" xml:space="preserve">
<style type="text/css">
	.st0{fill:#B11F24;stroke:#010101;stroke-width:8.451812e-02;stroke-miterlimit:10;}
	.st1{fill:url(#path5719_00000171692539884389415670000006753205425811821716_);}
	.st2{fill:#E41E26;}
</style>
<g>
	<path d="M63.1,42.1c-3,0-5.3-0.7-7-2c-1.7-1.4-2.8-3.2-3.3-5.6h6.2c0.2,0.7,0.6,1.2,1.3,1.7c0.7,0.5,1.6,0.7,2.7,0.7
		c1,0,1.7-0.2,2.3-0.5c0.6-0.3,0.9-0.8,0.9-1.3c0-0.4-0.1-0.7-0.3-0.9c-0.2-0.3-0.6-0.5-1.1-0.7c-0.6-0.2-1.4-0.4-2.5-0.6l-2.3-0.4
		c-2.1-0.4-3.6-1.1-4.7-2.1c-1.1-1.1-1.6-2.6-1.6-4.6c0-1.6,0.4-2.9,1.2-4.1c0.8-1.1,1.9-2,3.3-2.6c1.4-0.6,3-0.9,4.7-0.9
		c2.7,0,4.8,0.6,6.5,1.9c1.7,1.3,2.7,3,3,5.3h-6.2c-0.2-0.6-0.5-1-1-1.4c-0.5-0.4-1.3-0.6-2.2-0.6s-1.7,0.2-2.2,0.5
		c-0.5,0.3-0.8,0.8-0.8,1.3c0,0.5,0.2,0.9,0.7,1.2c0.5,0.3,1.4,0.6,2.9,0.9l2.3,0.4c2.2,0.4,3.9,1.2,5,2.3c1.1,1.1,1.7,2.6,1.7,4.6
		c0,1.7-0.4,3.1-1.2,4.2c-0.8,1.2-1.9,2-3.3,2.6C66.6,41.8,65,42.1,63.1,42.1z"/>
	<path d="M84.3,41.5v-23h17.4v5.3H90.6v3.4h10.7v5.3H90.6v3.5h11.3v5.3H84.3z"/>
	<path d="M114.1,41.5v-23h10.3c1.8,0,3.4,0.3,4.7,1c1.3,0.7,2.4,1.6,3.1,2.8c0.7,1.2,1.1,2.6,1.1,4.2c0,1.5-0.4,2.9-1.1,4.1
		c-0.7,1.2-1.7,2.1-2.9,2.8l5.5,8.2h-7l-4.6-7.1h-2.9v7.1H114.1z M120.4,29.2h3c1.3,0,2.2-0.2,2.7-0.7c0.6-0.5,0.8-1.2,0.8-2.1
		c0-0.9-0.3-1.6-0.8-2c-0.6-0.4-1.5-0.6-2.7-0.6h-3V29.2z"/>
	<path d="M152.1,41.5h-6.3v-23h6.3V41.5z"/>
	<path d="M164.9,41.5v-23h17.4v5.3h-11.1v3.4h10.7v5.3h-10.7v3.5h11.3v5.3H164.9z"/>
	<path d="M203.4,42.1c-3,0-5.3-0.7-7-2c-1.7-1.4-2.8-3.2-3.3-5.6h6.2c0.2,0.7,0.6,1.2,1.3,1.7c0.7,0.5,1.6,0.7,2.7,0.7
		c1,0,1.7-0.2,2.3-0.5c0.6-0.3,0.9-0.8,0.9-1.3c0-0.4-0.1-0.7-0.3-0.9c-0.2-0.3-0.6-0.5-1.1-0.7c-0.6-0.2-1.4-0.4-2.5-0.6l-2.3-0.4
		c-2.1-0.4-3.6-1.1-4.7-2.1c-1.1-1.1-1.6-2.6-1.6-4.6c0-1.6,0.4-2.9,1.2-4.1c0.8-1.1,1.9-2,3.3-2.6c1.4-0.6,3-0.9,4.7-0.9
		c2.7,0,4.8,0.6,6.5,1.9c1.7,1.3,2.7,3,3,5.3h-6.2c-0.2-0.6-0.5-1-1-1.4c-0.5-0.4-1.3-0.6-2.2-0.6s-1.7,0.2-2.2,0.5
		c-0.5,0.3-0.8,0.8-0.8,1.3c0,0.5,0.2,0.9,0.7,1.2c0.5,0.3,1.4,0.6,2.9,0.9l2.3,0.4c2.2,0.4,3.9,1.2,5,2.3c1.1,1.1,1.7,2.6,1.7,4.6
		c0,1.7-0.4,3.1-1.2,4.2c-0.8,1.2-1.9,2-3.3,2.6C206.9,41.8,205.2,42.1,203.4,42.1z"/>
</g>
<g id="layer1" transform="translate(12.495 6.756)">
	<g id="g4182">
		<g id="g5747" transform="translate(81.631 113.771) scale(.29074)">
			<path id="path4155" class="st0" d="M-250.2-414.2l-0.1,45.8l-0.1,45.8l-3.8-10.6v0l-4.9,101.9c4.8,13.5,7.4,20.7,7.4,20.8
				c0,0,2.8,0.2,6,0.4c10,0.5,22.3,1.6,31.7,2.7c2.2,0.3,4,0.4,4.2,0.3c0.1-0.1,0.2-46.7,0.1-103.6l-0.1-103.4
				C-209.6-414.2-250.2-414.2-250.2-414.2z"/>
			<path id="path4157" class="st0" d="M-323.6-414.4v103.5c0,56.9,0.1,103.5,0.1,103.6s3.6-0.3,7.8-0.7c4.3-0.5,10.1-1.1,13-1.3
				c4.5-0.4,17.9-1.2,19.4-1.3c0.5,0,0.5-2.3,0.5-43.8l0.1-43.8l3.2,9.2c0.5,1.4,0.7,1.9,1.1,3.2l4.9-101.9c-1-2.9-0.5-1.4-1.7-4.7
				c-4-11.3-7.4-20.8-7.5-21.2l-0.3-0.8L-323.6-414.4L-323.6-414.4z"/>
			<path id="path5715" class="st0" d="M-250.2-414.2l-0.1,45.8l-0.1,45.8l-3.8-10.6v0l-4.9,101.9c4.8,13.5,7.4,20.7,7.4,20.8
				c0,0,2.8,0.2,6,0.4c10,0.5,22.3,1.6,31.7,2.7c2.2,0.3,4,0.4,4.2,0.3c0.1-0.1,0.2-46.7,0.1-103.6l-0.1-103.4
				C-209.6-414.2-250.2-414.2-250.2-414.2z"/>
			<path id="path5717" class="st0" d="M-323.6-414.4v103.5c0,56.9,0.1,103.5,0.1,103.6s3.6-0.3,7.8-0.7c4.3-0.5,10.1-1.1,13-1.3
				c4.5-0.4,17.9-1.2,19.4-1.3c0.5,0,0.5-2.3,0.5-43.8l0.1-43.8l3.2,9.2c0.5,1.4,0.7,1.9,1.1,3.2l4.9-101.9c-1-2.9-0.5-1.4-1.7-4.7
				c-4-11.3-7.4-20.8-7.5-21.2l-0.3-0.8L-323.6-414.4L-323.6-414.4z"/>
			
				<radialGradient id="path5719_00000183208847234142834650000006332002973890441368_" cx="471808.625" cy="-20858.498" r="100.4548" gradientTransform="matrix(5.977944e-03 -2.070134e-03 -7.582500e-02 -0.219 -4670.5205 -3903.0225)" gradientUnits="userSpaceOnUse">
				<stop  offset="0" style="stop-color:#010101"/>
				<stop  offset="1" style="stop-color:#010101;stop-opacity:0"/>
			</radialGradient>
			<path id="path5719" style="fill:url(#path5719_00000183208847234142834650000006332002973890441368_);" d="M-323.6-414.4v58.1
				l40.9,108.5c0-2.5,0-3.8,0-6.7l0.1-43.8l3.2,9.2c18,51,27.7,78.4,27.7,78.4c0,0,2.8,0.2,6,0.4c10,0.5,22.3,1.6,31.7,2.7
				c2.2,0.3,4,0.4,4.2,0.3c0.1-0.1,0.1-22.9,0.1-55.1l-40.7-117.1l0,11.1l-0.1,45.8l-3.8-10.6c-3.7-10.4-6.1-17.3-20.9-59.1
				c-4-11.3-7.4-20.8-7.5-21.2l-0.3-0.8L-323.6-414.4C-323.6-414.4-323.6-414.4-323.6-414.4z"/>
			<path id="path5721" class="st2" d="M-323.6-414.4l41,116.2v-0.1l3.2,9.2c18,51,27.7,78.3,27.7,78.4c0,0,2.8,0.2,6,0.4
				c10,0.5,22.3,1.6,31.7,2.7c2.2,0.3,4,0.4,4.1,0.3l-40.6-115.4v0l-3.8-10.6c-3.7-10.4-6.1-17.3-20.9-59.1
				c-4-11.3-7.4-20.8-7.5-21.2l-0.3-0.8h-20.4C-303.2-414.4-323.6-414.4-323.6-414.4z"/>
		</g>
	</g>
</g>
</svg>
